<svg xmlns="http://www.w3.org/2000/svg" width="290" height="90" enable-background="new 160 500 972 202" viewBox="180 300 972 292"><style type="text/css">.st0{fill:#EF9A9A;} .st1{opacity:0.3;enable-background:new ;} .st2{fill:#EF5350;} .st3{opacity:0.65;fill:#FFFFFF;enable-background:new ;} .st4{fill:none;} .st5{enable-background:new ;} .st6{fill:#BA68C8;}</style><path d="M425.8 377.5c0-6.1 3.8-9 10.5-9h30.5c10.3 0 17.4.5 22.4 2.1 12.7 3.8 21.8 15.3 21.8 30.2 0 10.2-4.9 22-15.9 28v.3s2.8 2.5 5.2 6.4l14.3 22.8c4.4 6.9.7 11.5-6.9 11.5h-14.6c-4.9 0-9.2-2.3-12-7.1l-14.3-25.1H458v22.3c0 5.9-2.5 9.9-9.3 9.9h-12.5c-6.8 0-10.5-4.1-10.5-9.9l.1-82.4zm40.2 35.4c7.8 0 11.7-3.2 11.7-10.6 0-2.7-.5-5.6-5-7.3-2.5-1-5.2-1-8.8-1H458v19h8v-.1zM524.9 377.5c0-6.1 4.4-9 11.1-9h15c5.8 0 9.5 1.8 12.2 6.1l18.5 32.3c4.6 7.3 9.5 18.6 9.5 18.6h.3s-1.3-12-1.3-18.6v-29.4c0-6.1 3.4-9 10.1-9h12.5c6.8 0 11.1 3 11.1 9v82.3c0 5.9-4.5 9.9-11.1 9.9h-15c-5.7 0-9.3-2.2-12-6.6l-18.6-31.9c-4.6-7.1-9.5-18.3-9.5-18.3h-.3s1.4 11 1.4 17.7v29.2c0 5.9-3.4 9.9-10.2 9.9h-12.5c-6.8 0-11.1-4.1-11.1-9.9l-.1-82.3zM203.2 378.1c0-6.1 3.1-9.5 9.8-9.5h38.9c22.5 0 37.4 15.7 37.4 36.3 0 20.8-14.8 36.7-37.4 36.7h-16.6v18.9c0 5.9-3.1 9.2-9.9 9.2H213c-6.8 0-9.8-3.5-9.8-9.2v-82.4zm32.3 15.1v26.1c0 1.5 1.9 2.4 3.3 1.6l25.3-13.1c1.4-.7 1.5-2.5 0-3.3l-25.4-13.1c-1.4-.7-3.2.3-3.2 1.8z" class="st0"/><path d="M438.5 418.4c-12 10.7-11.7 69.7-77.8 69.7-66 0-66.3-59.2-77.9-69.7 9.6-8.6 11.5-48 45.7-63.4 8.5-3.8 25.3-2.1 32.3 2.7 9.5-4.7 23.4-6.6 32-2.8 34.7 15.4 36.7 55.5 45.7 63.5zm-77.8 19.4c16.1 0 30.1-7.8 37.5-19.4-7.5-11.6-21.5-19.4-37.5-19.4-16.1 0-30.1 7.8-37.5 19.4 7.4 11.6 21.4 19.4 37.5 19.4z" class="st1"/><path d="M432.5 413.1c-12 10.7-11.7 69.7-77.9 69.7-66 0-66.3-59.2-77.9-69.7 9.7-8.6 11.6-48 45.7-63.4 8.5-3.8 25.3-2.1 32.3 2.7 9.5-4.7 23.4-6.6 32-2.8 34.8 15.4 36.8 55.3 45.8 63.5zm-77.9 19.4c16.1 0 30.1-7.8 37.5-19.4-7.5-11.6-21.5-19.4-37.5-19.4-16.1 0-30.1 7.8-37.5 19.4 7.4 11.6 21.4 19.4 37.5 19.4z" class="st2"/><path d="M302.9 375.2c-2.8 5.1-4.8 10.6-6.6 16.1 7-5.7 13.7-11.8 20-18.1 4.8-4.9 13.1-11.8 11.8-18.9-11.7 1-20.5 12.3-25.2 20.9zM381.9 354.8c-1.3-1.5-3.4-2.3-5.6-2.5-5.7-.6-14.3 2.6-16.5 6 1.7 1.3 4.1 1.7 6.3 1.6 2.2-.2 4.3-.7 6.5-1.4 3.3-1 6.6-2 9.8-3-.1-.3-.3-.4-.5-.7zM357.8 458.6c0-1-.7-2.1-1.5-2.9-3.4-3.5-7.8-4.7-12.6-6.3-5.4-1.9-10.8-3.5-16.1-5.8-6.3-2.6-12.4-5.6-17.6-9.5-3.2-2.4-6.1-5.2-9.4-7.5-1-.7-3.9-3-5.2-2.8-2 .2-.6 3.7-.1 5.1 2.9 9.8 12.1 19.4 21 25.4 10.1 6.7 27.4 12.8 39.4 6.7.7-.4 1.5-.8 1.9-1.6.1-.2.2-.6.2-.8z" class="st3"/><path d="M-191.6 550.7V368.6h480.9v182.1" class="st4"/><g class="st5"><path d="M758.7 374.6c0-5.9 3.7-9 10.5-9h12.7c6.8 0 10.3 3 10.3 9v27.8h8.9l17.3-30.3c2.9-4.6 6.7-6.5 12.4-6.5h13c8.3 0 11.3 4.6 7.5 10.8l-22.9 36.9v.3l24.6 40.5c4 6.4 1 10.9-7.3 10.9h-14.9c-5.7 0-9.5-1.9-12.4-6.5l-17.3-31.4h-8.9V456c0 5.8-3.5 9-10.3 9h-12.7c-6.8 0-10.5-3.2-10.5-9v-81.4zM866.8 374.6c0-5.9 3.7-9 10.5-9H890c6.8 0 10.3 3 10.3 9v81.5c0 5.8-3.5 9-10.3 9h-12.7c-6.8 0-10.5-3.2-10.5-9v-81.5zM917.8 374.6c0-5.9 3.7-9 10.5-9h15.3c5.9 0 9.7 1.8 12.4 6.1l18.7 32c4.6 7.2 9.7 18.3 9.7 18.3h.3s-1.4-11.6-1.4-18.3v-29c0-5.9 3.5-9 10.3-9h12.7c6.8 0 10.5 3 10.5 9v81.5c0 5.8-3.7 9-10.5 9H991c-5.7 0-9.5-1.8-12.2-6.1l-18.9-31.8c-4.6-7.1-9.7-18.1-9.7-18.1h-.3s1.4 11.5 1.4 18.1v28.9c0 5.8-3.5 9-10.3 9h-12.7c-6.8 0-10.5-3.2-10.5-9v-81.6zM1090.3 363.9c17.8 0 32.3 5.7 36.9 8.6 5.7 3.6 6.4 7.2 2.7 12.4l-4.9 6.9c-3.7 5-8.1 5.3-14.5 2.5-5.4-2.2-9.9-3.9-18-3.9-21.3 0-28.6 11.6-28.6 23.8 0 16.5 13.7 25.9 28.3 25.9 14.1 0 19.2-5.9 19.2-5.9v-3.5h-4.6c-6.8 0-10.3-3.2-10.3-9.1V415c0-5.9 3.5-9 10.3-9h23.7c6.8 0 10.5 3 10.5 9v41.1c0 5.8-3.7 9-10.5 9h-6.2c-6.8 0-10.3-3.2-10.3-6.9v1.2c0-.4.2-.6.2-.6h-.3s-9.2 7.9-28.1 7.9c-28.8 0-56.4-18.7-56.4-50.6-.1-30.7 25.2-52.2 60.9-52.2z" class="st6"/></g><path d="M863.3 339.9c0 .7-.7 1.4-1.4 1.3-.8 0-1.3-.6-1.3-1.4s.7-1.4 1.4-1.3c.7 0 1.3.7 1.3 1.4zM906.8 340.7c0 .7-.7 1.4-1.4 1.3-.8 0-1.3-.6-1.3-1.4s.7-1.4 1.4-1.3c.7 0 1.3.7 1.3 1.4zM872.5 334.4c0 .7-.7 1.4-1.4 1.3-.8 0-1.3-.6-1.3-1.4s.7-1.4 1.4-1.3c.7 0 1.3.5 1.3 1.4zM898 334.8c0 .7-.7 1.4-1.4 1.3-.8 0-1.3-.6-1.3-1.4s.7-1.4 1.4-1.3 1.3.7 1.3 1.4zM886.2 326.2c0 1.3-1.2 2.4-2.5 2.3-1.3 0-2.4-1.1-2.4-2.4s1.2-2.4 2.5-2.3c1.3 0 2.4 1.1 2.4 2.4zM897.9 357.7l.6-1.5.9-2 1.7-4 .9-2 3.5-7.5-10.1 7.4 1.2-13.3-7.4 12.3-5.5-21.1-6.2 20.2-6.4-11.9.6 13.4-9.7-7.8 3.1 7.7.8 2 1.5 4.1.8 2 .8 2c9.5-1.5 19.3-1.5 28.9 0zM898.4 358.3l-.5 1.1c-9.6-1.6-19.4-1.6-29.1 0l-.6-1.7h-1.1v.1l.8 2 .8 2c9.6-1.6 19.5-1.6 29.1 0l.6-1.5.9-2 .1-.1-1 .1z" class="st6"/><path d="M244.1 373.9h713v114.6h-713z" class="st4"/><g class="st5"><path d="M659 484.2h-13v5h11.9l-2.2 7.2H646v5.5h14.1l-2.3 7.2h-20.5v-31.9H657l2 7zM663.3 485.1h11.3c3.4 0 5.8.7 7.2 2.1s2 3.8 2 7.3v14.6H676v-13.5c0-1.8-.2-2.9-.6-3.3s-1.2-.6-2.4-.6h-1.9v17.4h-7.8v-24zM703.5 477.1h8.8v14.1l7.5-14.1h9.8l-8 14 9.2 17.8h-10.2l-8.4-17.3v17.3h-8.8v-31.8h.1zM733.5 485.1h7.9v1.2c.5-.5 1.2-.9 1.9-1.1.8-.2 1.6-.4 2.6-.4h.5v6.7c-1.2 0-2.2.2-3 .7-.8.4-1.5 1-2 1.8v15h-7.9v-23.9zM764.8 509c-2.7 0-4.9-.3-6.7-.9s-3.4-1.5-4.7-2.8c-1.5-1.5-2.7-3.1-3.5-5s-1.2-3.9-1.2-6c0-3 .9-5.3 2.6-6.9s4.3-2.3 7.6-2.3h11.4V509h-5.5zm-4.4-17.5c-1.4 0-2.3.3-3 .9-.6.6-.9 1.5-.9 2.7 0 1.8.5 3.4 1.6 4.8s2.5 2.3 4.3 2.7v-11.1h-2zM775.3 477.1h7.9V509h-7.9v-31.9z" class="st0"/></g><g class="st5"><path d="M805.6 509v-23.4h8.6v7.9c2.2-1.1 3.8-2.2 5-3.3 1.2-1.2 1.8-2.3 1.8-3.3 0-.8-.3-1.4-.8-1.9-.5-.4-1.3-.6-2.3-.6H804l2-7.2h13.6c3.2 0 5.7.8 7.5 2.4s2.7 3.8 2.7 6.5c0 3.1-1.3 6-4 8.7s-6.5 5-11.7 7v7.3h-8.5v-.1zM843.2 484.8c4 0 6.9.7 8.7 2.1s2.7 3.7 2.7 6.7c0 2.3-.4 4.6-1.2 6.8s-1.8 4.1-3.2 5.7c-1 1.1-2 2-3.2 2.6s-2.4.8-3.8.8-2.7-.3-3.9-.8c-1.2-.6-2.2-1.4-3.2-2.5-1.4-1.6-2.4-3.5-3.2-5.7s-1.2-4.3-1.2-6.5c0-3.3.9-5.6 2.7-7.1 1.8-1.4 4.7-2.1 8.8-2.1zm3.5 9.9c0-1.2-.3-2-.9-2.6s-1.4-.8-2.6-.8-2.1.3-2.7.9-.9 1.4-.9 2.6c0 .7.1 1.5.2 2.3s.4 1.6.7 2.5c.4 1.1.8 1.9 1.2 2.5s.9.8 1.4.8c.3 0 .7-.2 1-.5s.7-.8 1-1.5c.5-1 .8-2 1.1-3.1s.5-2.1.5-3.1zM858.2 485.1h7.9v1.2c.5-.5 1.2-.9 1.9-1.1.8-.2 1.6-.4 2.6-.4h.5v6.7c-1.2 0-2.2.2-3 .7s-1.5 1-2 1.8v15h-7.9v-23.9zM874.8 485.1h11.3c3.4 0 5.8.7 7.2 2.1s2 3.8 2 7.3v14.6h-7.8v-13.5c0-1.8-.2-2.9-.6-3.3s-1.2-.6-2.4-.6h-1.9v17.4h-7.8v-24zM910.1 484.8c4 0 6.9.7 8.7 2.1s2.7 3.7 2.7 6.7c0 2.3-.4 4.6-1.2 6.8s-1.8 4.1-3.2 5.7c-1 1.1-2 2-3.2 2.6s-2.4.8-3.8.8-2.7-.3-3.9-.8c-1.2-.6-2.2-1.4-3.2-2.5-1.4-1.6-2.4-3.5-3.2-5.7s-1.2-4.3-1.2-6.5c0-3.3.9-5.6 2.7-7.1 1.8-1.4 4.8-2.1 8.8-2.1zm3.5 9.9c0-1.2-.3-2-.9-2.6s-1.4-.8-2.6-.8-2.1.3-2.7.9-.9 1.4-.9 2.6c0 .7.1 1.5.2 2.3s.4 1.6.7 2.5c.4 1.1.8 1.9 1.2 2.5s.9.8 1.4.8c.3 0 .7-.2 1-.5s.7-.8 1-1.5c.5-1 .8-2 1.1-3.1.4-1.1.5-2.1.5-3.1zM925.1 477.1h7.9V509h-7.9v-31.9zM952.8 509c-2.7 0-4.9-.3-6.7-.9s-3.4-1.5-4.7-2.8c-1.5-1.5-2.7-3.1-3.5-5s-1.2-3.9-1.2-6c0-3 .9-5.3 2.6-6.9s4.3-2.3 7.6-2.3h11.4V509h-5.5zm-4.4-17.5c-1.4 0-2.3.3-3 .9-.6.6-.9 1.5-.9 2.7 0 1.8.5 3.4 1.6 4.8s2.5 2.3 4.3 2.7v-11.1h-2zM963.3 485.1h7.9v1.2c.5-.5 1.2-.9 1.9-1.1.8-.2 1.6-.4 2.6-.4h.5v6.7c-1.2 0-2.2.2-3 .7-.8.4-1.5 1-2 1.8v15h-7.9v-23.9z" class="st0"/></g><g class="st5"><path d="M996.8 485.6h8.5v16.1h6.1c.8 0 1.4-.1 1.8-.4s.6-.7.6-1.3c0-1.2-.7-2.5-2-3.8-1.4-1.3-3.4-2.7-6.2-4.2 2.5-1.6 4.2-2.8 5.3-3.8s1.6-1.8 1.6-2.4c0-.5-.2-.9-.6-1.1s-1-.4-1.9-.4h-14.7l2-7.2h14.3c3.4 0 6 .6 7.7 1.8s2.6 3 2.6 5.3c0 1.4-.3 2.7-1 3.9s-1.7 2.4-3.2 3.5c1.8 1.3 3.2 2.7 4.2 4.3s1.5 3.2 1.5 4.9c0 1.5-.3 2.8-.9 3.9s-1.5 2-2.7 2.7c-.9.5-2.1.9-3.5 1.1s-3.7.3-6.9.3h-12.5l-.1-23.2zM1036.5 509c-3.7 0-6.4-.8-8.2-2.4s-2.7-4-2.7-7.3c0-1.8.3-3.9 1-6.3s1.7-5 3.1-8h7.8c-1.4 3.5-2.4 6.3-3 8.4s-.9 3.8-.9 5.1c0 1.5.3 2.5 1 3.1s1.8.9 3.5.9h1.6V485h7.8v23.9l-11 .1zM1052.6 485.1h7.9v1.2c.5-.5 1.2-.9 1.9-1.1.8-.2 1.6-.4 2.6-.4h.5v6.7c-1.2 0-2.2.2-3 .7-.8.4-1.5 1-2 1.8v15h-7.9v-23.9zM1083.9 509c-2.7 0-4.9-.3-6.7-.9s-3.4-1.5-4.7-2.8c-1.5-1.5-2.7-3.1-3.5-5s-1.2-3.9-1.2-6c0-3 .9-5.3 2.6-6.9s4.3-2.3 7.6-2.3h11.4V509h-5.5zm-4.4-17.5c-1.4 0-2.3.3-3 .9-.6.6-.9 1.5-.9 2.7 0 1.8.5 3.4 1.6 4.8s2.5 2.3 4.3 2.7v-11.1h-2zM1109.8 509c-2.8 0-5.2-.3-7-.8s-3.4-1.4-4.8-2.5c-1.7-1.5-3-3.2-3.9-5.2s-1.3-4.2-1.3-6.6c0-2.9.8-5.1 2.4-6.6s3.9-2.2 7-2.2h4.6v-8h7.8V509h-4.8zm-5.7-17.5c-1.2 0-2.1.3-2.6.8s-.8 1.4-.8 2.5c0 2.1.6 3.8 1.7 5.3 1.1 1.4 2.6 2.2 4.4 2.4v-11.1h-2.7v.1zM1134 509c-2.7 0-4.9-.3-6.7-.9s-3.4-1.5-4.7-2.8c-1.5-1.5-2.7-3.1-3.5-5s-1.2-3.9-1.2-6c0-3 .9-5.3 2.6-6.9s4.3-2.3 7.6-2.3h11.4V509h-5.5zm-4.4-17.5c-1.4 0-2.3.3-3 .9-.6.6-.9 1.5-.9 2.7 0 1.8.5 3.4 1.6 4.8s2.5 2.3 4.3 2.7v-11.1h-2z" class="st0"/></g><path d="M114.9 492.4h706v116.5h-706z" class="st4"/><path d="M689.1 362.9c33.6 0 60.3 21.2 60.3 53.8 0 32.2-26.8 52.8-60.1 52.8-33.4 0-60.1-20.6-60.1-52.8 0-32.6 26.8-53.8 59.9-53.8zm.2 72.8c9.6 0 18.2-6.5 18.2-19 0-12.8-8.6-20-18.2-20s-18 7.3-18 20c0 12.5 8.4 19 18 19z" class="st0"/></svg>